<svg xmlns="http://www.w3.org/2000/svg" style="display: none;">

    <symbol id="icon-arrow-up" viewBox="0 0 1008 1008">
     <g><g transform="matrix(1 0 0 -1 0 1008)"><path d="M500,766.1l490-490l-26.3-26.3L500,713.6L36.3,249.9L10,276.1L500,766.1z"/></g></g>
    </symbol>

    <symbol id="icon-arrow-down" viewBox="0 0 1008 1008">
      <g><g transform="matrix(1 0 0 -1 0 1008)"><path d="M500,249.9l-490,490l26.3,26.2L500,302.4l463.8,463.8l26.3-26.2L500,249.9z"/></g></g>
    </symbol>

    <symbol id="icon-arrow-left" viewBox="0 0 512 512">
      <path d="m133 256l269-237c4-4 5-11 1-15-4-5-11-5-15-1l-278 245c-2 2-3 5-3 8 0 3 1 6 3 8l278 245c2 2 4 3 7 3 3 0 6-1 8-4 4-4 3-11-1-15z"/>
    </symbol>

    <symbol id="icon-arrow-right" viewBox="0 0 512 512">
      <path d="m402 248l-278-245c-4-4-11-4-15 1-4 4-3 11 1 15l269 237-269 237c-4 4-5 11-1 15 2 3 5 4 8 4 3 0 5-1 7-3l278-245c2-2 3-5 3-8 0-3-1-6-3-8z"/>
    </symbol>
</svg>
