<svg xmlns="http://www.w3.org/2000/svg" style="display: none;">

    <symbol id="icon-arrow-up" viewBox="0 0 1008 1008">
     <g><g transform="matrix(1 0 0 -1 0 1008)"><path d="M500,766.1l490-490l-26.3-26.3L500,713.6L36.3,249.9L10,276.1L500,766.1z"/></g></g>
    </symbol>

    <symbol id="icon-arrow-down" viewBox="0 0 1008 1008">
      <g><g transform="matrix(1 0 0 -1 0 1008)"><path d="M500,249.9l-490,490l26.3,26.2L500,302.4l463.8,463.8l26.3-26.2L500,249.9z"/></g></g>
    </symbol>

    <symbol id="icon-arrow-left" viewBox="0 0 512 512">
      <path d="m133 256l269-237c4-4 5-11 1-15-4-5-11-5-15-1l-278 245c-2 2-3 5-3 8 0 3 1 6 3 8l278 245c2 2 4 3 7 3 3 0 6-1 8-4 4-4 3-11-1-15z"/>
    </symbol>

    <symbol id="icon-arrow-right" viewBox="0 0 512 512">
      <path d="m402 248l-278-245c-4-4-11-4-15 1-4 4-3 11 1 15l269 237-269 237c-4 4-5 11-1 15 2 3 5 4 8 4 3 0 5-1 7-3l278-245c2-2 3-5 3-8 0-3-1-6-3-8z"/>
    </symbol>

    <symbol id="icon-check" viewBox="0 0 1200 1200">
      <g>
        <g>
          <path d="M599.997,1150C296.73,1150,50,903.27,50,599.997C50,296.73,296.73,50,599.997,50
            C903.271,50,1150,296.73,1150,599.997C1150,903.27,903.271,1150,599.997,1150z M599.997,125.831
            c-261.455,0-474.166,212.711-474.166,474.167c0,261.461,212.711,474.172,474.166,474.172
            c261.461,0,474.172-212.711,474.172-474.172C1074.169,338.542,861.458,125.831,599.997,125.831z"/>
        </g>
        <g>
          <path d="M495.81,858.085c-0.205,0-0.404,0-0.61-0.005c-11.291-0.183-21.909-5.383-28.972-14.191l-168.66-210.318
            c-13.102-16.338-10.481-40.2,5.856-53.302c16.338-13.079,40.206-10.481,53.302,5.861l140.042,174.625L844.055,355.17
            c13.626-15.91,37.557-17.756,53.461-4.142c15.904,13.621,17.762,37.557,4.141,53.461L524.611,844.83
            C517.399,853.25,506.872,858.085,495.81,858.085z"/>
        </g>
      </g>
    </symbol>

    <symbol id="icon-uncheck" viewBox="0 0 1200 1200">
              <g>
          <path d="M599.997,1150C296.73,1150,50,903.27,50,599.997C50,296.73,296.73,50,599.997,50
            C903.271,50,1150,296.73,1150,599.997C1150,903.27,903.271,1150,599.997,1150z M599.997,125.831
            c-261.455,0-474.166,212.711-474.166,474.167c0,261.461,212.711,474.172,474.166,474.172
            c261.461,0,474.172-212.711,474.172-474.172C1074.169,338.542,861.458,125.831,599.997,125.831z"/>
        </g>
    </symbol>

</svg>
